<svg xmlns="http://www.w3.org/2000/svg" width="177" height="100" fill="none"><g fill="#fff" clip-path="url(#a)"><path d="M69.605 42.809l-4.683 10.663h2.212l.778-1.818h2.79l.962-2.123H68.81l1.968-4.614 3.661 8.555h2.181L71.97 42.81h-2.364zm49.719.044c-3.798 0-5.293 1.864-5.293 5.287 0 3.422 1.495 5.286 5.293 5.286s5.278-1.88 5.293-5.286c-.015-3.423-1.495-5.287-5.293-5.287zm0 8.633c-2.349 0-3.31-.902-3.31-3.362s.961-3.36 3.31-3.36 3.295.9 3.295 3.36-.946 3.361-3.295 3.361zm-74.129-8.633h-1.938v10.573h1.938v-8.464h6.422v8.464h1.922V42.853h-8.344zm89.234 0h-8.359v10.573h1.937v-8.464h6.422v8.464h1.922V42.853h-1.922zm-68.687 3.163c0-.443-.076-.84-.228-1.237a3.4 3.4 0 00-.626-1.009 2.843 2.843 0 00-.915-.672 2.589 2.589 0 00-1.129-.245h-7.337l.961 2.124h6.376c.275 0 .504.107.687.306.183.198.274.443.274.733s-.091.55-.274.749a.852.852 0 01-.687.305H58.39c-.396 0-.778.077-1.128.26a2.9 2.9 0 00-.916.687c-.259.29-.457.627-.625 1.009a3.307 3.307 0 00-.229 1.237v3.178h1.937v-3.178c0-.29.092-.55.275-.748a.853.853 0 01.686-.306h4.454c.397 0 .778-.076 1.13-.26a3.09 3.09 0 00.914-.672 3.305 3.305 0 00.854-2.246m13.726 4.355v-7.533h-1.937v10.573h1.937l6.742-7.547v7.547h1.922V42.853H86.21l-6.742 7.532zm5.329-8.48l.96-1.543h-4.82l.382 1.543h3.478zm11.936 7.152l-4.546-6.218h-1.921v10.587h1.921v-7.196l4.546 6.188 4.546-6.188v7.196h1.937V42.84h-1.937l-4.546 6.218zm7.751-4.094h3.509v8.463h1.937v-8.463h3.249V42.84h-8.695v2.123zM43.485 71.577c-.427.168-.824.305-1.25.458 1.51.244 3.05.428 4.621.535 5.003.351 8.893-.26 12.142-1.207-3.524-2.23-8.405-2.49-15.513.214zm130.569-20.351c-1.251-3.56-2.776-6.936-4.485-10.16-1.266 4.538-3.401 9.29-6.421 14.102-.321.52-.656 1.023-.992 1.528.046.244.107.489.153.718 2.074 11.58-.809 21.587-8.115 28.172-6.559 5.912-15.787 8.418-26.678 7.257a49.671 49.671 0 01-3.89-.566 56.067 56.067 0 01-6.269-1.527 97.951 97.951 0 01-6.513 1.91c4.881 2.26 10.509 4.155 17.145 5.377 1.479.275 2.959.49 4.408.642 1.891.198 3.752.305 5.567.305 35.388 0 44.632-23.527 36.12-47.758"/><path d="M14.919 44.015c-.961-2.001-1.754-4.033-2.303-6.096-3.585-13.581 5.293-23.772 19.371-22.274 5.537.595 11.212 2.627 15.956 5.744l.549.336c-7.932 1.528-16.505 6.294-23.353 12.68-4.073 3.79-7.55 8.159-9.9 12.758C7.292 62.76 12.51 82.3 46.676 68.52c12.447-5.026 17.77 0 21.004 8.998 3.57 9.931 12.92 15.018 25.016 15.018 10.052 0 25.595-3.513 37.66-10.648 12.783-7.563 23.643-18.196 30.583-29.914 6.941-11.718 9.122-23.1 6.117-32.038a20.02 20.02 0 00-1.175-2.75C160.344 6.232 145.747 2.123 129.075 5.3c-21.614-8.63-44.723-6.904-56.575 7-15.604 18.287-17.434 2.123-41.885-.642C-4.163 7.715-6.36 33.672 9.336 52.968c.366-.84.778-1.696 1.236-2.551 1.19-2.2 2.67-4.355 4.347-6.402zm141.17-21.007a79.09 79.09 0 00-8.054-7.012c-5.156-2.536-11.715-3.422-19.036-2.445a76.317 76.317 0 0114.185 10.725c5.278 5.042 9.625 10.619 12.905 16.409-1.068 3.483-2.67 7.089-4.836 10.74C145.32 61.447 136.031 70.537 125.124 77c-7.138 4.232-14.216 6.967-20.759 8.25-9.046-5.103-15.574-11.504-19.83-15.675-.839-.825-1.601-1.558-2.257-2.2-5.05-4.767-9.06-6.264-12.554-6.264-2.501 0-4.743.78-6.894 1.68a19.335 19.335 0 00-2.883-.228c-4.164 0-9.122 1.16-14.887 3.498a70.57 70.57 0 01-1.236.474c-5.644-.749-12.004-3.743-17.648-8.434a47.088 47.088 0 01-5.415-5.331 49.364 49.364 0 012.227-5.073c1.693-3.315 4.317-6.691 7.398-9.747 6.635-6.539 15.482-11.642 22.316-11.642 3.904 0 6.833.596 10.174 3.606 10.372 9.335 24.695.275 37.34-7.715 2.501-1.59 7.611-4.706 7.611-4.706 21.828-12.833 42.13-9.518 48.155 5.21.046.091.076.198.107.29m-56.743 62.96c-11.928 1.023-21.34-3.285-24.71-12.65-.824-2.322-1.922-4.217-3.234-5.79 9.244-.23 15.65 9.594 27.944 18.424M18.854 62.044A53.325 53.325 0 0033.3 69.728c-10.738 2.108-14.323-1.925-14.445-7.685zm50.29-39.187l.321-.413s.137-.183.244-.32l.046-.062c.06-.076.168-.229.274-.366l.061-.077c.077-.092.138-.183.214-.29l.32-.443c.061-.092.138-.184.199-.275l.106-.138c.061-.076.153-.229.26-.366l.274-.367c.122-.183.214-.306.305-.413l.076-.122s.107-.137.168-.229l.199-.29c.06-.092.122-.184.198-.29l.93-1.314c.061-.092.153-.23.275-.398a25.258 25.258 0 013.874-4.4c7.307-6.584 18.167-8.968 30.583-6.691 3.356.61 6.712 1.558 10.022 2.78a79.849 79.849 0 00-12.752 6.066c-2.715 1.588-5.385 3.284-7.978 4.919-13.865 8.77-22.071 13.43-29.256 6.951a16.924 16.924 0 00-1.555-1.252 9.687 9.687 0 002.623-2.2"/></g><defs><clipPath id="a"><path fill="#fff" d="M0 0h177v99H0z"/></clipPath></defs></svg>